<svg width="1024" height="1024" viewBox="0 0 1024 1024" fill="none" xmlns="http://www.w3.org/2000/svg">
  <defs>
    <linearGradient id="bg" x1="140" y1="120" x2="884" y2="904" gradientUnits="userSpaceOnUse">
      <stop stop-color="#F7F1E4"/>
      <stop offset="1" stop-color="#E5D9BF"/>
    </linearGradient>
    <linearGradient id="panel" x1="220" y1="180" x2="804" y2="844" gradientUnits="userSpaceOnUse">
      <stop stop-color="#253228"/>
      <stop offset="1" stop-color="#161F18"/>
    </linearGradient>
    <linearGradient id="wire" x1="286" y1="402" x2="756" y2="622" gradientUnits="userSpaceOnUse">
      <stop stop-color="#2F6DB2"/>
      <stop offset="1" stop-color="#2AA36B"/>
    </linearGradient>
    <filter id="shadow" x="82" y="82" width="860" height="860" filterUnits="userSpaceOnUse" color-interpolation-filters="sRGB">
      <feDropShadow dx="0" dy="24" stdDeviation="28" flood-color="#3A2A18" flood-opacity="0.18"/>
    </filter>
  </defs>

  <g filter="url(#shadow)">
    <rect x="110" y="110" width="804" height="804" rx="220" fill="url(#bg)"/>
  </g>

  <rect x="182" y="182" width="660" height="660" rx="164" fill="url(#panel)"/>
  <rect x="216" y="216" width="592" height="592" rx="136" stroke="rgba(255,255,255,0.08)" stroke-width="4"/>

  <rect x="246" y="262" width="102" height="500" rx="44" fill="#F2E8D2" fill-opacity="0.08"/>
  <rect x="676" y="262" width="102" height="500" rx="44" fill="#F2E8D2" fill-opacity="0.08"/>

  <circle cx="298" cy="380" r="34" fill="#D2864B"/>
  <circle cx="298" cy="380" r="18" fill="#F7F1E4"/>
  <circle cx="298" cy="512" r="34" fill="#D2864B"/>
  <circle cx="298" cy="512" r="18" fill="#F7F1E4"/>
  <circle cx="298" cy="644" r="34" fill="#D2864B"/>
  <circle cx="298" cy="644" r="18" fill="#F7F1E4"/>

  <circle cx="726" cy="380" r="34" fill="#2F6DB2"/>
  <circle cx="726" cy="380" r="18" fill="#F7F1E4"/>
  <circle cx="726" cy="512" r="34" fill="#2F6DB2"/>
  <circle cx="726" cy="512" r="18" fill="#F7F1E4"/>
  <circle cx="726" cy="644" r="34" fill="#2F6DB2"/>
  <circle cx="726" cy="644" r="18" fill="#F7F1E4"/>

  <path d="M298 380H438V622H726" stroke="#F7F1E4" stroke-width="82" stroke-linecap="round" stroke-linejoin="round"/>
  <path d="M298 380H438V622H726" stroke="url(#wire)" stroke-width="52" stroke-linecap="round" stroke-linejoin="round"/>

  <circle cx="438" cy="622" r="22" fill="#F7F1E4"/>
  <circle cx="438" cy="622" r="12" fill="#2AA36B"/>

  <path d="M482 330H610" stroke="#F7F1E4" stroke-opacity="0.18" stroke-width="22" stroke-linecap="round"/>
  <path d="M482 404H650" stroke="#F7F1E4" stroke-opacity="0.18" stroke-width="22" stroke-linecap="round"/>
  <path d="M482 478H590" stroke="#F7F1E4" stroke-opacity="0.18" stroke-width="22" stroke-linecap="round"/>
</svg>
